<svg xmlns="http://www.w3.org/2000/svg" viewBox="0 0 64 64" width="64" height="64">
  <defs>
    <radialGradient id="skin" cx="42%" cy="32%" r="72%">
      <stop offset="0%" stop-color="#e2618f"/>
      <stop offset="60%" stop-color="#a82f63"/>
      <stop offset="100%" stop-color="#5a1634"/>
    </radialGradient>
    <radialGradient id="core" cx="50%" cy="50%" r="50%">
      <stop offset="0%" stop-color="#fff3c8"/>
      <stop offset="100%" stop-color="#f4c95f"/>
    </radialGradient>
  </defs>
  <!-- sprout -->
  <path d="M32 12 C30 6 26 3 22 2 C24 7 27 10 32 12 Z" fill="#5fae5a"/>
  <path d="M32 12 C34 6 38 3 42 2 C40 7 37 10 32 12 Z" fill="#6fc169"/>
  <path d="M32 13 V7" stroke="#4a8f47" stroke-width="2" stroke-linecap="round"/>
  <!-- onion body -->
  <path d="M32 13 C49 21 47 49 32 60 C17 49 15 21 32 13 Z" fill="url(#skin)"/>
  <!-- layer rings -->
  <path d="M32 19 C42 26 41 47 32 55 C23 47 22 26 32 19 Z" fill="none" stroke="#e9a7c4" stroke-width="1.6" opacity="0.55"/>
  <path d="M32 26 C37 31 37 45 32 51 C27 45 27 31 32 26 Z" fill="none" stroke="#f1c6da" stroke-width="1.6" opacity="0.6"/>
  <!-- glowing core -->
  <circle cx="32" cy="40" r="5" fill="url(#core)"/>
</svg>
